<svg xmlns="http://www.w3.org/2000/svg" viewBox="0 0 196 28" class="pc-logo-color">
    <path id="pc-logo-text"
          d="M42.3 16.3c-.9 0-1.7-.3-2.2-.5-.4-.2-.7-.7-.7-1.2v-4c0-.3.1-.5.2-.7.2-.4 1.2-1.5 2.8-1.5 2 0 3.4 1.6 3.4 4 0 2.3-1.4 3.9-3.5 3.9zm.5-10.4c-1.9 0-3.1.8-3.9 1.5l-.1.1-.2-1c-.1-.2-.2-.3-.5-.3h-1.2c-.3 0-.5.2-.5.5v17c0 .3.3.6.6.6h1.7c.4 0 .7-.2.7-.6l.1-5.6c1 .5 2 .8 3.1.8 3.4 0 6-2.8 6-6.5.1-3.7-2.5-6.5-5.8-6.5zm78.3 9.4c0 .5-.3.9-.7 1.2-.5.2-1.2.5-2.2.5-2.1 0-3.5-1.6-3.5-3.9 0-2.4 1.4-4 3.4-4 1.7 0 2.6 1.1 2.8 1.5.1.2.2.5.2.7v4zm2.3-8.5h-1.2c-.2 0-.4.1-.5.3l-.2.9c-.6-.6-1.8-1.5-3.9-1.5-3.3 0-5.8 2.8-5.8 6.5s2.6 6.5 6 6.5c1 0 2.1-.3 3.2-.8v.2c.1.8-.2 1.5-.8 2.2-.7.8-1.8 1.2-3.3 1.2-1.2 0-2.3-.5-2.8-.9-.1 0-.2-.1-.2-.1-.2 0-.3.1-.4.2l-.6 1.2c-.1.2-.1.4.1.6.4.2 2.3 1.5 4.6 1.5h.2c3.7-.1 6.2-2.3 6.2-5.5v-12c-.1-.3-.3-.5-.6-.5zm-13.7 11.5c.3 0 .6-.3.6-.6V12c0-4.7-3.1-5.5-4.9-5.5-2.2 0-3.6 1.1-4.1 1.4l-.3-.8c-.1-.2-.3-.4-.5-.4h-.8c-.4.1-.7.3-.7.7v10.3c0 .3.3.6.6.6h1.5c.5 0 .7-.2.7-.6v-7c.2-.5 1.5-1.7 3.2-1.7 1.5 0 2.4 1 2.4 2.8v5.8c0 .3.3.6.6.6l1.7.1zm-13.7 0c.3 0 .6-.3.6-.6V7.4c0-.3-.3-.6-.6-.6h-1.7c-.3 0-.6.3-.6.6v10.3c0 .3.3.6.6.6H96zm.9-15.1c0-1-.8-1.7-1.8-1.7s-1.7.8-1.7 1.7c0 1 .8 1.7 1.7 1.7 1 0 1.8-.8 1.8-1.7zm-6 15.1c.3 0 .6-.3.6-.6V12c0-3.5-1.8-5.5-4.9-5.5-2.2 0-3.6 1.1-4.1 1.4l-.3-.8c-.1-.2-.3-.4-.5-.4h-.8c-.3 0-.6.3-.6.6v10.3c0 .3.3.6.6.6h1.5c.5 0 .7-.2.7-.6v-7c.2-.5 1.5-1.7 3.2-1.7 1.5 0 2.4 1 2.4 2.8v5.8c0 .3.3.6.6.6h1.6v.2zm-13.5 0c.3 0 .6-.3.6-.6V12c0-3.5-1.8-5.5-4.9-5.5-2.1 0-3.5 1-4.1 1.4l-.3-.8c-.1-.2-.3-.4-.5-.4h-.8c-.3 0-.6.3-.6.6v10.3c0 .3.3.6.6.6h1.5c.5 0 .7-.2.7-.6v-7c.2-.5 1.5-1.7 3.2-1.7 1.5 0 2.4 1 2.4 2.8v5.8c0 .3.3.6.6.6h1.6v.2zm-15.1-3.2c-.4.6-1.4 1.4-2.6 1.4-1 0-1.7-.7-1.7-1.8s.9-1.8 2.3-1.8c.9 0 1.7.3 2 .5v1.7zm-1.5-8.6c-2.3 0-4 .7-4.1.7-.3.1-.5.4-.4.7l.2 1.1c.1.3.3.5.6.5h.2c1.2-.3 2.3-.5 3.3-.5.6 0 1 .1 1.3.4.3.3.5.9.4 2-.4-.2-1.3-.4-2.3-.4-2.8 0-4.7 1.5-4.7 3.7 0 2.3 1.5 3.9 3.8 3.9 1.3 0 2.5-.4 3.6-1.3l.2.6c.1.3.2.4.5.4h.8c.3 0 .6-.3.6-.6v-6.1c.1-2.8-.2-5.1-4-5.1zm-7 11.8c.2 0 .4-.2.4-.4v-2.1c0-.2-.2-.4-.4-.4h-.2c-.3 0-.6-.3-.6-.6V3.4c0-.3-.3-.6-.6-.6h-1.7c-.3 0-.6.3-.6.6v13c0 1 .9 1.8 1.9 1.8h1.8v.1zm135.4 0c.4 0 .8 0 .8-.6v-7.2c.1-.2.9-1.3 2.6-1.3.4 0 .8.1 1 .2.1 0 .2.1.3.1.2 0 .4-.1.5-.3l.7-1.4c.1-.2.1-.4 0-.5-.3-.4-1.3-.6-2.1-.6-1.9 0-2.9 1-3.4 1.5l-.2-.7c-.1-.2-.3-.4-.5-.4h-.9c-.3 0-.6.3-.6.6V18c0 .3.3.6.6.6h1.2v-.3zm-11.7-7.2c.2-1.4 1.4-2.3 2.9-2.3 1.3 0 2.5 1 2.6 2.4l-5.5-.1zm2.9-4.6c-3.4 0-5.9 2.6-5.9 6s2.6 6 5.9 6c1.7 0 3.3-.5 4.4-1.4.2-.1.2-.3.3-.4 0-.2-.1-.3-.2-.4l-.8-1.1c-.1-.1-.2-.2-.3-.2-.2 0-.3.1-.5.2-.5.3-1.5.8-2.6.8-1.9 0-3.1-1.5-3.2-2.9h7.8c.3 0 .5-.2.6-.5 0-.2.1-.6.1-.8-.2-3-2.5-5.3-5.6-5.3zm-6.6 11.2c.3-.2.4-.4.3-.7l-.5-1.3c-.1-.1-.1-.3-.3-.3h-.1c-.1 0-.2 0-.3.1-.5.2-1.2.5-1.8.5-.4 0-.9-.1-.9-1.1l.1-5.6h2.9c.3 0 .6-.3.6-.6V7.4c0-.3-.3-.6-.6-.6l-2.9-.1V3.2c0-.3-.3-.6-.6-.6H168c-.3 0-.6.3-.6.6l-.1 3.5h-1.1c-.3 0-.6.3-.6.6v1.3c0 .3.3.6.6.6l1.2.1v5.8c0 1.5.3 3.4 3 3.4 1.4 0 3.1-.7 3.4-.8zm-9.5.6c.3 0 .6-.3.6-.6V12c0-3.5-1.8-5.5-4.9-5.5-2.1 0-3.6 1.1-4.1 1.4l-.3-.8c-.1-.2-.3-.4-.5-.4h-.8c-.3 0-.6.3-.6.6v10.3c0 .3.3.6.6.6h1.5c.5 0 .7-.2.7-.6v-7c.2-.5 1.5-1.7 3.2-1.7 1.5 0 2.4 1 2.4 2.8v5.8c0 .3.3.6.6.6h1.6v.2zm-20.9-7.2c.2-1.4 1.4-2.3 2.9-2.3 1.3 0 2.5 1 2.6 2.4l-5.5-.1zm2.9-4.6c-3.4 0-5.9 2.6-5.9 6s2.5 6 5.9 6c1.7 0 3.3-.5 4.4-1.4.2-.1.2-.3.3-.4 0-.2-.1-.3-.2-.4l-.8-1.1c-.1-.1-.2-.2-.3-.2-.2 0-.3.1-.5.2-.5.3-1.5.8-2.6.8-1.9 0-3.2-1.5-3.2-2.9h7.8c.3 0 .5-.2.6-.5 0-.2.1-.6.1-.8-.2-3-2.5-5.3-5.6-5.3zm-11.1 12c-3.4 0-6.2-2.7-6.2-6s2.8-6.1 6.2-6.1c1.8 0 3.2.7 4.3 2 .1.1.2.3.1.5 0 .2-.1.3-.3.4l-1 .9c-.1.1-.2.2-.4.2s-.3-.1-.4-.2c-.7-.7-1.5-1.1-2.4-1.1-1.9 0-3.3 1.5-3.3 3.5s1.5 3.5 3.3 3.5c1.3 0 1.9-.6 2.5-1.1l.2-.2c.1-.1.3-.2.5-.2.1 0 .3.1.4.2l.8.6c.3.3.4.6.2.9-1 1.4-2.6 2.2-4.5 2.2z"
          fill="#464646"/>
    <path d="M23.9 2.8C25.8 3.3 27 5.1 27 7v13.3c0 1.9-1.3 3.6-3.1 4.2L15.7 27c-1.4.4-3 .4-4.4 0l-8.2-2.4C1.3 24 0 22.2 0 20.3V7c0-1.9 1.3-3.6 3.1-4.2L11.3.4c1.4-.4 3-.4 4.4 0l8.2 2.4z"
          fill="#3b78ff"/>
    <path d="M18.5 7.8l-4.8 1.4c-.2 0-.3.1-.5 0L8.4 7.8c-1-.3-1.9.4-1.9 1.4V20c0 .2.1.4.3.4l1.8.5c.3.1.5-.1.5-.4V18s0-.1.1-.1l3.6 1.1c.5.1 1 .1 1.4 0l5.4-1.7c.6-.1.9-.5.9-1v-7c0-1-1-1.8-2-1.5zm-.6 7.2c0 .1-.1.2-.2.2l-3.9 1.2c-.2.1-.4.1-.6 0l-3.8-1.1c-.1 0-.2-.1-.2-.2v-4c0-.1.1-.2.3-.2l3.1.9c.6.2 1.3.2 1.9 0l3.1-.9c.1 0 .3.1.3.2V15z"
          fill="#fff"/>
</svg>